<?xml version="1.0" standalone="no"?>

<!--
Generated by putting the grammar below in
https://tabatkins.github.io/railroad-diagrams/generator.html
and making the following modifications to the SVG output pane:
* preserving this comment and the XML prologue above
* adding xmlns="http://www.w3.org/2000/svg" to the <svg> tag
* adding <defs><style>...</style></defs> as the first child
  of the <svg> element with the contents of
  https://raw.githubusercontent.com/tabatkins/railroad-diagrams/gh-pages/railroad-diagrams.css

==================

Diagram(
  ZeroOrMore(
    Choice(
      3,
      Sequence(
        Comment('hole'),
        Terminal('${'),
        NonTerminal('escape'),
        Terminal('}')),
      Sequence(
        Comment('line comment'),
        Choice(
          0,
          Terminal('#'),
          Sequence(Terminal('\-\-'), NonTerminal('space'))),
        ZeroOrMore(Terminal('[^\\r\\n]'))),
      Sequence(
        Comment('block comment'),
        Terminal('/*'),
        ZeroOrMore(
          Choice(
            1,
            Terminal('/'),
            Sequence(ZeroOrMore(Terminal('*')), Terminal('[^*/]')))),
        Terminal('*/')
      ),
      Sequence(
        Comment('normal char'),
        Terminal('[^\'\"`\\\\]')),
      Sequence(
        Comment('escape'),
        Terminal('\\'),
        NonTerminal('char')),
      Sequence(
        Comment('quoted'),
        Terminal('"'),
        ZeroOrMore(
          Choice(
            1,
            Terminal('""'),
            Terminal('[^\"\\\\]'),
            Sequence(Terminal('\\'), NonTerminal('char')),
            Sequence(Terminal('${'), NonTerminal('escapeChars'), Terminal('}')))),
        Terminal('"')),
      Sequence(
        Comment('quoted'),
        Terminal('\''),
        ZeroOrMore(
          Choice(
            1,
            Terminal('\'\''),
            Terminal('[^\'\\\\]'),
            Sequence(Terminal('\\'), NonTerminal('char')),
            Sequence(Terminal('${'), NonTerminal('escapeChars'), Terminal('}')))),
        Terminal('\'')),
      Sequence(
        Comment('id'),
        Optional(Terminal('\\'), 'skip'),
        Terminal('`'),
        ZeroOrMore(
          Choice(
            1,
            Sequence(
              Optional(Terminal('\\'), 'skip'),
              Terminal('`'),
              Optional(Terminal('\\'), 'skip'),
              Terminal('`')),
            Terminal('[^\`\\\\]'),
            Sequence(Terminal('\\'), NonTerminal('char')),
            Sequence(Terminal('${'), NonTerminal('escapeIdChars'), Terminal('}'))
        )),
        Optional(Terminal('\\'), 'skip'),
        Terminal('`')))));

-->


<svg class="railroad-diagram" width="764" height="729" viewBox="0 0 764 729"
     xmlns="http://www.w3.org/2000/svg">
  <defs><style>
svg.railroad-diagram {
    background-color: hsl(30,20%,95%);
}
svg.railroad-diagram path {
    stroke-width: 3;
    stroke: black;
    fill: rgba(0,0,0,0);
}
svg.railroad-diagram text {
    font: bold 14px monospace;
    text-anchor: middle;
}
svg.railroad-diagram text.diagram-text {
    font-size: 12px;
}
svg.railroad-diagram text.diagram-arrow {
    font-size: 16px;
}
svg.railroad-diagram text.label {
    text-anchor: start;
}
svg.railroad-diagram text.comment {
    font: italic 12px monospace;
}
svg.railroad-diagram g.non-terminal text {
    /*font-style: italic;*/
}
svg.railroad-diagram rect {
    stroke-width: 3;
    stroke: black;
    fill: hsl(120,100%,90%);
}
svg.railroad-diagram path.diagram-text {
    stroke-width: 3;
    stroke: black;
    fill: white;
    cursor: help;
}
svg.railroad-diagram g.diagram-text:hover path.diagram-text {
    fill: #eee;
}
</style>
</defs>
<g transform="translate(.5 .5)">
<path d="M 20 222 v 20 m 10 -20 v 20 m -10 -10 h 20.5"></path>
<g>
<path d="M40 232h0"></path>
<path d="M724 232h0"></path>
<path d="M40 232a10 10 0 0 0 10 -10v-192a10 10 0 0 1 10 -10"></path>
<g>
<path d="M60 20h644"></path>
</g>
<path d="M704 20a10 10 0 0 1 10 10v192a10 10 0 0 0 10 10"></path>
<path d="M40 232h20"></path>
<g>
<path d="M60 232h0"></path>
<path d="M704 232h0"></path>
<path d="M60 232h10"></path>
<g>
<path d="M70 232h0"></path>
<path d="M694 232h0"></path>
<path d="M70 232a10 10 0 0 0 10 -10v-27a10 10 0 0 1 10 -10"></path>
<g>
<path d="M90 185h56.5"></path>
<path d="M617.5 185h56.5"></path>
<g>
<path d="M146.5 185h0"></path>
<path d="M247.5 185h0"></path>
<text x="197" y="190" class="comment">block comment</text>
</g>
<path d="M247.5 185h10"></path>
<path d="M257.5 185h10"></path>
<g class="terminal">
<path d="M267.5 185h0"></path>
<path d="M303.5 185h0"></path>
<rect x="267.5" y="174" width="36" height="22" rx="10" ry="10"></rect>
<text x="285.5" y="189">/&#42;</text>
</g>
<path d="M303.5 185h10"></path>
<g>
<path d="M313.5 185h0"></path>
<path d="M571.5 185h0"></path>
<path d="M313.5 185a10 10 0 0 0 10 -10v-38a10 10 0 0 1 10 -10"></path>
<g>
<path d="M333.5 127h218"></path>
</g>
<path d="M551.5 127a10 10 0 0 1 10 10v38a10 10 0 0 0 10 10"></path>
<path d="M313.5 185h20"></path>
<g>
<path d="M333.5 185h0"></path>
<path d="M551.5 185h0"></path>
<path d="M333.5 185h10"></path>
<g>
<path d="M343.5 185h0"></path>
<path d="M541.5 185h0"></path>
<path d="M343.5 185a10 10 0 0 0 10 -10v-19a10 10 0 0 1 10 -10"></path>
<g class="terminal">
<path d="M363.5 146h65"></path>
<path d="M456.5 146h65"></path>
<rect x="428.5" y="135" width="28" height="22" rx="10" ry="10"></rect>
<text x="442.5" y="150">/</text>
</g>
<path d="M521.5 146a10 10 0 0 1 10 10v19a10 10 0 0 0 10 10"></path>
<path d="M343.5 185h20"></path>
<g>
<path d="M363.5 185h0"></path>
<path d="M521.5 185h0"></path>
<g>
<path d="M363.5 185h0"></path>
<path d="M451.5 185h0"></path>
<path d="M363.5 185a10 10 0 0 0 10 -10v0a10 10 0 0 1 10 -10"></path>
<g>
<path d="M383.5 165h48"></path>
</g>
<path d="M431.5 165a10 10 0 0 1 10 10v0a10 10 0 0 0 10 10"></path>
<path d="M363.5 185h20"></path>
<g>
<path d="M383.5 185h0"></path>
<path d="M431.5 185h0"></path>
<path d="M383.5 185h10"></path>
<g class="terminal">
<path d="M393.5 185h0"></path>
<path d="M421.5 185h0"></path>
<rect x="393.5" y="174" width="28" height="22" rx="10" ry="10"></rect>
<text x="407.5" y="189">&#42;</text>
</g>
<path d="M421.5 185h10"></path>
<path d="M393.5 185a10 10 0 0 0 -10 10v0a10 10 0 0 0 10 10"></path>
<g>
<path d="M393.5 205h28"></path>
</g>
<path d="M421.5 205a10 10 0 0 0 10 -10v0a10 10 0 0 0 -10 -10"></path>
</g>
<path d="M431.5 185h20"></path>
</g>
<path d="M451.5 185h10"></path>
<g class="terminal">
<path d="M461.5 185h0"></path>
<path d="M521.5 185h0"></path>
<rect x="461.5" y="174" width="60" height="22" rx="10" ry="10"></rect>
<text x="491.5" y="189">&#91;^&#42;/&#93;</text>
</g>
</g>
<path d="M521.5 185h20"></path>
</g>
<path d="M541.5 185h10"></path>
<path d="M343.5 185a10 10 0 0 0 -10 10v8a10 10 0 0 0 10 10"></path>
<g>
<path d="M343.5 213h198"></path>
</g>
<path d="M541.5 213a10 10 0 0 0 10 -10v-8a10 10 0 0 0 -10 -10"></path>
</g>
<path d="M551.5 185h20"></path>
</g>
<path d="M571.5 185h10"></path>
<g class="terminal">
<path d="M581.5 185h0"></path>
<path d="M617.5 185h0"></path>
<rect x="581.5" y="174" width="36" height="22" rx="10" ry="10"></rect>
<text x="599.5" y="189">&#42;/</text>
</g>
</g>
<path d="M674 185a10 10 0 0 1 10 10v27a10 10 0 0 0 10 10"></path>
<path d="M70 232a10 10 0 0 0 10 -10v-134a10 10 0 0 1 10 -10"></path>
<g>
<path d="M90 78h94"></path>
<path d="M580 78h94"></path>
<g>
<path d="M184 78h0"></path>
<path d="M278 78h0"></path>
<text x="231" y="83" class="comment">line comment</text>
</g>
<path d="M278 78h10"></path>
<g>
<path d="M288 78h0"></path>
<path d="M444 78h0"></path>
<path d="M288 78h20"></path>
<g class="terminal">
<path d="M308 78h44"></path>
<path d="M380 78h44"></path>
<rect x="352" y="67" width="28" height="22" rx="10" ry="10"></rect>
<text x="366" y="82">#</text>
</g>
<path d="M424 78h20"></path>
<path d="M288 78a10 10 0 0 1 10 10v10a10 10 0 0 0 10 10"></path>
<g>
<path d="M308 108h0"></path>
<path d="M424 108h0"></path>
<g class="terminal">
<path d="M308 108h0"></path>
<path d="M344 108h0"></path>
<rect x="308" y="97" width="36" height="22" rx="10" ry="10"></rect>
<text x="326" y="112">--</text>
</g>
<path d="M344 108h10"></path>
<path d="M354 108h10"></path>
<g class="non-terminal">
<path d="M364 108h0"></path>
<path d="M424 108h0"></path>
<rect x="364" y="97" width="60" height="22"></rect>
<text x="394" y="112">space</text>
</g>
</g>
<path d="M424 108a10 10 0 0 0 10 -10v-10a10 10 0 0 1 10 -10"></path>
</g>
<g>
<path d="M444 78h0"></path>
<path d="M580 78h0"></path>
<path d="M444 78a10 10 0 0 0 10 -10v0a10 10 0 0 1 10 -10"></path>
<g>
<path d="M464 58h96"></path>
</g>
<path d="M560 58a10 10 0 0 1 10 10v0a10 10 0 0 0 10 10"></path>
<path d="M444 78h20"></path>
<g>
<path d="M464 78h0"></path>
<path d="M560 78h0"></path>
<path d="M464 78h10"></path>
<g class="terminal">
<path d="M474 78h0"></path>
<path d="M550 78h0"></path>
<rect x="474" y="67" width="76" height="22" rx="10" ry="10"></rect>
<text x="512" y="82">&#91;^\r\n&#93;</text>
</g>
<path d="M550 78h10"></path>
<path d="M474 78a10 10 0 0 0 -10 10v0a10 10 0 0 0 10 10"></path>
<g>
<path d="M474 98h76"></path>
</g>
<path d="M550 98a10 10 0 0 0 10 -10v0a10 10 0 0 0 -10 -10"></path>
</g>
<path d="M560 78h20"></path>
</g>
</g>
<path d="M674 78a10 10 0 0 1 10 10v134a10 10 0 0 0 10 10"></path>
<path d="M70 232a10 10 0 0 0 10 -10v-173a10 10 0 0 1 10 -10"></path>
<g>
<path d="M90 39h177"></path>
<path d="M497 39h177"></path>
<g>
<path d="M267 39h0"></path>
<path d="M305 39h0"></path>
<text x="286" y="44" class="comment">hole</text>
</g>
<path d="M305 39h10"></path>
<path d="M315 39h10"></path>
<g class="terminal">
<path d="M325 39h0"></path>
<path d="M361 39h0"></path>
<rect x="325" y="28" width="36" height="22" rx="10" ry="10"></rect>
<text x="343" y="43">${</text>
</g>
<path d="M361 39h10"></path>
<path d="M371 39h10"></path>
<g class="non-terminal">
<path d="M381 39h0"></path>
<path d="M449 39h0"></path>
<rect x="381" y="28" width="68" height="22"></rect>
<text x="415" y="43">escape</text>
</g>
<path d="M449 39h10"></path>
<path d="M459 39h10"></path>
<g class="terminal">
<path d="M469 39h0"></path>
<path d="M497 39h0"></path>
<rect x="469" y="28" width="28" height="22" rx="10" ry="10"></rect>
<text x="483" y="43">}</text>
</g>
</g>
<path d="M674 39a10 10 0 0 1 10 10v173a10 10 0 0 0 10 10"></path>
<path d="M70 232h20"></path>
<g>
<path d="M90 232h196.5"></path>
<path d="M477.5 232h196.5"></path>
<g>
<path d="M286.5 232h0"></path>
<path d="M373.5 232h0"></path>
<text x="330" y="237" class="comment">normal char</text>
</g>
<path d="M373.5 232h10"></path>
<path d="M383.5 232h10"></path>
<g class="terminal">
<path d="M393.5 232h0"></path>
<path d="M477.5 232h0"></path>
<rect x="393.5" y="221" width="84" height="22" rx="10" ry="10"></rect>
<text x="435.5" y="236">&#91;^'"&#96;\\&#93;</text>
</g>
</g>
<path d="M674 232h20"></path>
<path d="M70 232a10 10 0 0 1 10 10v10a10 10 0 0 0 10 10"></path>
<g>
<path d="M90 262h206"></path>
<path d="M468 262h206"></path>
<g>
<path d="M296 262h0"></path>
<path d="M348 262h0"></path>
<text x="322" y="267" class="comment">escape</text>
</g>
<path d="M348 262h10"></path>
<path d="M358 262h10"></path>
<g class="terminal">
<path d="M368 262h0"></path>
<path d="M396 262h0"></path>
<rect x="368" y="251" width="28" height="22" rx="10" ry="10"></rect>
<text x="382" y="266">\</text>
</g>
<path d="M396 262h10"></path>
<path d="M406 262h10"></path>
<g class="non-terminal">
<path d="M416 262h0"></path>
<path d="M468 262h0"></path>
<rect x="416" y="251" width="52" height="22"></rect>
<text x="442" y="266">char</text>
</g>
</g>
<path d="M674 262a10 10 0 0 0 10 -10v-10a10 10 0 0 1 10 -10"></path>
<path d="M70 232a10 10 0 0 1 10 10v78a10 10 0 0 0 10 10"></path>
<g>
<path d="M90 330h62"></path>
<path d="M612 330h62"></path>
<g>
<path d="M152 330h0"></path>
<path d="M204 330h0"></path>
<text x="178" y="335" class="comment">quoted</text>
</g>
<path d="M204 330h10"></path>
<path d="M214 330h10"></path>
<g class="terminal">
<path d="M224 330h0"></path>
<path d="M252 330h0"></path>
<rect x="224" y="319" width="28" height="22" rx="10" ry="10"></rect>
<text x="238" y="334">"</text>
</g>
<path d="M252 330h10"></path>
<g>
<path d="M262 330h0"></path>
<path d="M574 330h0"></path>
<path d="M262 330a10 10 0 0 0 10 -10v-29a10 10 0 0 1 10 -10"></path>
<g>
<path d="M282 281h272"></path>
</g>
<path d="M554 281a10 10 0 0 1 10 10v29a10 10 0 0 0 10 10"></path>
<path d="M262 330h20"></path>
<g>
<path d="M282 330h0"></path>
<path d="M554 330h0"></path>
<path d="M282 330h10"></path>
<g>
<path d="M292 330h0"></path>
<path d="M544 330h0"></path>
<path d="M292 330a10 10 0 0 0 10 -10v-10a10 10 0 0 1 10 -10"></path>
<g class="terminal">
<path d="M312 300h88"></path>
<path d="M436 300h88"></path>
<rect x="400" y="289" width="36" height="22" rx="10" ry="10"></rect>
<text x="418" y="304">""</text>
</g>
<path d="M524 300a10 10 0 0 1 10 10v10a10 10 0 0 0 10 10"></path>
<path d="M292 330h20"></path>
<g class="terminal">
<path d="M312 330h72"></path>
<path d="M452 330h72"></path>
<rect x="384" y="319" width="68" height="22" rx="10" ry="10"></rect>
<text x="418" y="334">&#91;^"\\&#93;</text>
</g>
<path d="M524 330h20"></path>
<path d="M292 330a10 10 0 0 1 10 10v10a10 10 0 0 0 10 10"></path>
<g>
<path d="M312 360h56"></path>
<path d="M468 360h56"></path>
<g class="terminal">
<path d="M368 360h0"></path>
<path d="M396 360h0"></path>
<rect x="368" y="349" width="28" height="22" rx="10" ry="10"></rect>
<text x="382" y="364">\</text>
</g>
<path d="M396 360h10"></path>
<path d="M406 360h10"></path>
<g class="non-terminal">
<path d="M416 360h0"></path>
<path d="M468 360h0"></path>
<rect x="416" y="349" width="52" height="22"></rect>
<text x="442" y="364">char</text>
</g>
</g>
<path d="M524 360a10 10 0 0 0 10 -10v-10a10 10 0 0 1 10 -10"></path>
<path d="M292 330a10 10 0 0 1 10 10v40a10 10 0 0 0 10 10"></path>
<g>
<path d="M312 390h0"></path>
<path d="M524 390h0"></path>
<g class="terminal">
<path d="M312 390h0"></path>
<path d="M348 390h0"></path>
<rect x="312" y="379" width="36" height="22" rx="10" ry="10"></rect>
<text x="330" y="394">${</text>
</g>
<path d="M348 390h10"></path>
<path d="M358 390h10"></path>
<g class="non-terminal">
<path d="M368 390h0"></path>
<path d="M476 390h0"></path>
<rect x="368" y="379" width="108" height="22"></rect>
<text x="422" y="394">escapeChars</text>
</g>
<path d="M476 390h10"></path>
<path d="M486 390h10"></path>
<g class="terminal">
<path d="M496 390h0"></path>
<path d="M524 390h0"></path>
<rect x="496" y="379" width="28" height="22" rx="10" ry="10"></rect>
<text x="510" y="394">}</text>
</g>
</g>
<path d="M524 390a10 10 0 0 0 10 -10v-40a10 10 0 0 1 10 -10"></path>
</g>
<path d="M544 330h10"></path>
<path d="M292 330a10 10 0 0 0 -10 10v59a10 10 0 0 0 10 10"></path>
<g>
<path d="M292 409h252"></path>
</g>
<path d="M544 409a10 10 0 0 0 10 -10v-59a10 10 0 0 0 -10 -10"></path>
</g>
<path d="M554 330h20"></path>
</g>
<path d="M574 330h10"></path>
<g class="terminal">
<path d="M584 330h0"></path>
<path d="M612 330h0"></path>
<rect x="584" y="319" width="28" height="22" rx="10" ry="10"></rect>
<text x="598" y="334">"</text>
</g>
</g>
<path d="M674 330a10 10 0 0 0 10 -10v-78a10 10 0 0 1 10 -10"></path>
<path d="M70 232a10 10 0 0 1 10 10v214a10 10 0 0 0 10 10"></path>
<g>
<path d="M90 466h62"></path>
<path d="M612 466h62"></path>
<g>
<path d="M152 466h0"></path>
<path d="M204 466h0"></path>
<text x="178" y="471" class="comment">quoted</text>
</g>
<path d="M204 466h10"></path>
<path d="M214 466h10"></path>
<g class="terminal">
<path d="M224 466h0"></path>
<path d="M252 466h0"></path>
<rect x="224" y="455" width="28" height="22" rx="10" ry="10"></rect>
<text x="238" y="470">'</text>
</g>
<path d="M252 466h10"></path>
<g>
<path d="M262 466h0"></path>
<path d="M574 466h0"></path>
<path d="M262 466a10 10 0 0 0 10 -10v-29a10 10 0 0 1 10 -10"></path>
<g>
<path d="M282 417h272"></path>
</g>
<path d="M554 417a10 10 0 0 1 10 10v29a10 10 0 0 0 10 10"></path>
<path d="M262 466h20"></path>
<g>
<path d="M282 466h0"></path>
<path d="M554 466h0"></path>
<path d="M282 466h10"></path>
<g>
<path d="M292 466h0"></path>
<path d="M544 466h0"></path>
<path d="M292 466a10 10 0 0 0 10 -10v-10a10 10 0 0 1 10 -10"></path>
<g class="terminal">
<path d="M312 436h88"></path>
<path d="M436 436h88"></path>
<rect x="400" y="425" width="36" height="22" rx="10" ry="10"></rect>
<text x="418" y="440">''</text>
</g>
<path d="M524 436a10 10 0 0 1 10 10v10a10 10 0 0 0 10 10"></path>
<path d="M292 466h20"></path>
<g class="terminal">
<path d="M312 466h72"></path>
<path d="M452 466h72"></path>
<rect x="384" y="455" width="68" height="22" rx="10" ry="10"></rect>
<text x="418" y="470">&#91;^'\\&#93;</text>
</g>
<path d="M524 466h20"></path>
<path d="M292 466a10 10 0 0 1 10 10v10a10 10 0 0 0 10 10"></path>
<g>
<path d="M312 496h56"></path>
<path d="M468 496h56"></path>
<g class="terminal">
<path d="M368 496h0"></path>
<path d="M396 496h0"></path>
<rect x="368" y="485" width="28" height="22" rx="10" ry="10"></rect>
<text x="382" y="500">\</text>
</g>
<path d="M396 496h10"></path>
<path d="M406 496h10"></path>
<g class="non-terminal">
<path d="M416 496h0"></path>
<path d="M468 496h0"></path>
<rect x="416" y="485" width="52" height="22"></rect>
<text x="442" y="500">char</text>
</g>
</g>
<path d="M524 496a10 10 0 0 0 10 -10v-10a10 10 0 0 1 10 -10"></path>
<path d="M292 466a10 10 0 0 1 10 10v40a10 10 0 0 0 10 10"></path>
<g>
<path d="M312 526h0"></path>
<path d="M524 526h0"></path>
<g class="terminal">
<path d="M312 526h0"></path>
<path d="M348 526h0"></path>
<rect x="312" y="515" width="36" height="22" rx="10" ry="10"></rect>
<text x="330" y="530">${</text>
</g>
<path d="M348 526h10"></path>
<path d="M358 526h10"></path>
<g class="non-terminal">
<path d="M368 526h0"></path>
<path d="M476 526h0"></path>
<rect x="368" y="515" width="108" height="22"></rect>
<text x="422" y="530">escapeChars</text>
</g>
<path d="M476 526h10"></path>
<path d="M486 526h10"></path>
<g class="terminal">
<path d="M496 526h0"></path>
<path d="M524 526h0"></path>
<rect x="496" y="515" width="28" height="22" rx="10" ry="10"></rect>
<text x="510" y="530">}</text>
</g>
</g>
<path d="M524 526a10 10 0 0 0 10 -10v-40a10 10 0 0 1 10 -10"></path>
</g>
<path d="M544 466h10"></path>
<path d="M292 466a10 10 0 0 0 -10 10v59a10 10 0 0 0 10 10"></path>
<g>
<path d="M292 545h252"></path>
</g>
<path d="M544 545a10 10 0 0 0 10 -10v-59a10 10 0 0 0 -10 -10"></path>
</g>
<path d="M554 466h20"></path>
</g>
<path d="M574 466h10"></path>
<g class="terminal">
<path d="M584 466h0"></path>
<path d="M612 466h0"></path>
<rect x="584" y="455" width="28" height="22" rx="10" ry="10"></rect>
<text x="598" y="470">'</text>
</g>
</g>
<path d="M674 466a10 10 0 0 0 10 -10v-214a10 10 0 0 1 10 -10"></path>
<path d="M70 232a10 10 0 0 1 10 10v370a10 10 0 0 0 10 10"></path>
<g>
<path d="M90 622h0"></path>
<path d="M674 622h0"></path>
<g>
<path d="M90 622h0"></path>
<path d="M114 622h0"></path>
<text x="102" y="627" class="comment">id</text>
</g>
<path d="M114 622h10"></path>
<g>
<path d="M124 622h0"></path>
<path d="M192 622h0"></path>
<path d="M124 622h20"></path>
<g>
<path d="M144 622h28"></path>
</g>
<path d="M172 622h20"></path>
<path d="M124 622a10 10 0 0 1 10 10v0a10 10 0 0 0 10 10"></path>
<g class="terminal">
<path d="M144 642h0"></path>
<path d="M172 642h0"></path>
<rect x="144" y="631" width="28" height="22" rx="10" ry="10"></rect>
<text x="158" y="646">\</text>
</g>
<path d="M172 642a10 10 0 0 0 10 -10v0a10 10 0 0 1 10 -10"></path>
</g>
<path d="M192 622h10"></path>
<g class="terminal">
<path d="M202 622h0"></path>
<path d="M230 622h0"></path>
<rect x="202" y="611" width="28" height="22" rx="10" ry="10"></rect>
<text x="216" y="626">&#96;</text>
</g>
<path d="M230 622h10"></path>
<g>
<path d="M240 622h0"></path>
<path d="M568 622h0"></path>
<path d="M240 622a10 10 0 0 0 10 -10v-49a10 10 0 0 1 10 -10"></path>
<g>
<path d="M260 553h288"></path>
</g>
<path d="M548 553a10 10 0 0 1 10 10v49a10 10 0 0 0 10 10"></path>
<path d="M240 622h20"></path>
<g>
<path d="M260 622h0"></path>
<path d="M548 622h0"></path>
<path d="M260 622h10"></path>
<g>
<path d="M270 622h0"></path>
<path d="M538 622h0"></path>
<path d="M270 622a10 10 0 0 0 10 -10v-30a10 10 0 0 1 10 -10"></path>
<g>
<path d="M290 572h3"></path>
<path d="M515 572h3"></path>
<g>
<path d="M293 572h0"></path>
<path d="M361 572h0"></path>
<path d="M293 572h20"></path>
<g>
<path d="M313 572h28"></path>
</g>
<path d="M341 572h20"></path>
<path d="M293 572a10 10 0 0 1 10 10v0a10 10 0 0 0 10 10"></path>
<g class="terminal">
<path d="M313 592h0"></path>
<path d="M341 592h0"></path>
<rect x="313" y="581" width="28" height="22" rx="10" ry="10"></rect>
<text x="327" y="596">\</text>
</g>
<path d="M341 592a10 10 0 0 0 10 -10v0a10 10 0 0 1 10 -10"></path>
</g>
<path d="M361 572h10"></path>
<g class="terminal">
<path d="M371 572h0"></path>
<path d="M399 572h0"></path>
<rect x="371" y="561" width="28" height="22" rx="10" ry="10"></rect>
<text x="385" y="576">&#96;</text>
</g>
<path d="M399 572h10"></path>
<g>
<path d="M409 572h0"></path>
<path d="M477 572h0"></path>
<path d="M409 572h20"></path>
<g>
<path d="M429 572h28"></path>
</g>
<path d="M457 572h20"></path>
<path d="M409 572a10 10 0 0 1 10 10v0a10 10 0 0 0 10 10"></path>
<g class="terminal">
<path d="M429 592h0"></path>
<path d="M457 592h0"></path>
<rect x="429" y="581" width="28" height="22" rx="10" ry="10"></rect>
<text x="443" y="596">\</text>
</g>
<path d="M457 592a10 10 0 0 0 10 -10v0a10 10 0 0 1 10 -10"></path>
</g>
<path d="M477 572h10"></path>
<g class="terminal">
<path d="M487 572h0"></path>
<path d="M515 572h0"></path>
<rect x="487" y="561" width="28" height="22" rx="10" ry="10"></rect>
<text x="501" y="576">&#96;</text>
</g>
</g>
<path d="M518 572a10 10 0 0 1 10 10v30a10 10 0 0 0 10 10"></path>
<path d="M270 622h20"></path>
<g class="terminal">
<path d="M290 622h80"></path>
<path d="M438 622h80"></path>
<rect x="370" y="611" width="68" height="22" rx="10" ry="10"></rect>
<text x="404" y="626">&#91;^&#96;\\&#93;</text>
</g>
<path d="M518 622h20"></path>
<path d="M270 622a10 10 0 0 1 10 10v10a10 10 0 0 0 10 10"></path>
<g>
<path d="M290 652h64"></path>
<path d="M454 652h64"></path>
<g class="terminal">
<path d="M354 652h0"></path>
<path d="M382 652h0"></path>
<rect x="354" y="641" width="28" height="22" rx="10" ry="10"></rect>
<text x="368" y="656">\</text>
</g>
<path d="M382 652h10"></path>
<path d="M392 652h10"></path>
<g class="non-terminal">
<path d="M402 652h0"></path>
<path d="M454 652h0"></path>
<rect x="402" y="641" width="52" height="22"></rect>
<text x="428" y="656">char</text>
</g>
</g>
<path d="M518 652a10 10 0 0 0 10 -10v-10a10 10 0 0 1 10 -10"></path>
<path d="M270 622a10 10 0 0 1 10 10v40a10 10 0 0 0 10 10"></path>
<g>
<path d="M290 682h0"></path>
<path d="M518 682h0"></path>
<g class="terminal">
<path d="M290 682h0"></path>
<path d="M326 682h0"></path>
<rect x="290" y="671" width="36" height="22" rx="10" ry="10"></rect>
<text x="308" y="686">${</text>
</g>
<path d="M326 682h10"></path>
<path d="M336 682h10"></path>
<g class="non-terminal">
<path d="M346 682h0"></path>
<path d="M470 682h0"></path>
<rect x="346" y="671" width="124" height="22"></rect>
<text x="408" y="686">escapeIdChars</text>
</g>
<path d="M470 682h10"></path>
<path d="M480 682h10"></path>
<g class="terminal">
<path d="M490 682h0"></path>
<path d="M518 682h0"></path>
<rect x="490" y="671" width="28" height="22" rx="10" ry="10"></rect>
<text x="504" y="686">}</text>
</g>
</g>
<path d="M518 682a10 10 0 0 0 10 -10v-40a10 10 0 0 1 10 -10"></path>
</g>
<path d="M538 622h10"></path>
<path d="M270 622a10 10 0 0 0 -10 10v59a10 10 0 0 0 10 10"></path>
<g>
<path d="M270 701h268"></path>
</g>
<path d="M538 701a10 10 0 0 0 10 -10v-59a10 10 0 0 0 -10 -10"></path>
</g>
<path d="M548 622h20"></path>
</g>
<g>
<path d="M568 622h0"></path>
<path d="M636 622h0"></path>
<path d="M568 622h20"></path>
<g>
<path d="M588 622h28"></path>
</g>
<path d="M616 622h20"></path>
<path d="M568 622a10 10 0 0 1 10 10v0a10 10 0 0 0 10 10"></path>
<g class="terminal">
<path d="M588 642h0"></path>
<path d="M616 642h0"></path>
<rect x="588" y="631" width="28" height="22" rx="10" ry="10"></rect>
<text x="602" y="646">\</text>
</g>
<path d="M616 642a10 10 0 0 0 10 -10v0a10 10 0 0 1 10 -10"></path>
</g>
<path d="M636 622h10"></path>
<g class="terminal">
<path d="M646 622h0"></path>
<path d="M674 622h0"></path>
<rect x="646" y="611" width="28" height="22" rx="10" ry="10"></rect>
<text x="660" y="626">&#96;</text>
</g>
</g>
<path d="M674 622a10 10 0 0 0 10 -10v-370a10 10 0 0 1 10 -10"></path>
</g>
<path d="M694 232h10"></path>
<path d="M70 232a10 10 0 0 0 -10 10v457a10 10 0 0 0 10 10"></path>
<g>
<path d="M70 709h624"></path>
</g>
<path d="M694 709a10 10 0 0 0 10 -10v-457a10 10 0 0 0 -10 -10"></path>
</g>
<path d="M704 232h20"></path>
</g>
<path d="M 724 232 h 20 m -10 -10 v 20 m 10 -20 v 20"></path>
</g>
</svg>
